<svg width="190" height="40" viewBox="0 0 190 40" fill="none" xmlns="http://www.w3.org/2000/svg">
  <path d="M8 29V10h17c7 0 10 3 10 8 0 4-2 6-6 8l8 2v1H27l-7-6h-4v6H8Z" fill="#FFFFFF"/>
  <path d="M16 18h8c2 0 3-1 3-2s-1-2-3-2h-8v4Z" fill="#282929"/>
  <path d="M40 29V10h28v6H49v2h17v5H49v2h20v5H40Z" fill="#FFFFFF"/>
  <path d="M74 29V10h9l13 11V10h9v19h-9L83 18v11h-9Z" fill="#FFFFFF"/>
  <path d="M136 9h10l-17 22h-9L108 9h10l7 12 11-12Z" fill="#D51F32"/>
  <path d="M142 29V10h17c10 0 17 4 17 10s-7 10-17 10h-17Z" fill="#FFFFFF"/>
  <path d="M151 24h8c5 0 8-2 8-5s-3-5-8-5h-8v10Z" fill="#282929"/>
  <path d="M171 11l8-7 8 7v6h-6v-4l-2-2-2 2v4h-6v-6Z" fill="#D51F32"/>
  <path d="M107 28l11-19h9l-11 19h-9Z" fill="#D51F32"/>
</svg>
