<svg width="170" height="36" viewBox="0 0 170 36" fill="none" xmlns="http://www.w3.org/2000/svg">
  <path d="M7 26V9h15c6 0 9 3 9 8 0 3-2 6-5 7l7 2v1h-9l-6-5h-4v5H7Z" fill="#2D2E2E"/>
  <path d="M14 16h7c2 0 3-1 3-2s-1-2-3-2h-7v4Z" fill="#FBFBFA"/>
  <path d="M36 26V9h25v5H44v2h15v4H44v2h18v5H36Z" fill="#2D2E2E"/>
  <path d="M66 26V9h8l12 10V9h8v17h-8L74 16v10h-8Z" fill="#2D2E2E"/>
  <path d="M121 8h9l-15 20h-8L96 8h9l6 11 10-11Z" fill="#D51F32"/>
  <path d="M126 26V9h15c9 0 15 3 15 9s-6 9-15 9h-15Z" fill="#2D2E2E"/>
  <path d="M134 21h7c4 0 7-1 7-4s-3-4-7-4h-7v8Z" fill="#FBFBFA"/>
  <path d="M153 10l7-6 7 6v5h-5v-3l-2-2-2 2v3h-5v-5Z" fill="#D51F32"/>
  <path d="M95 25l10-17h8l-10 17h-8Z" fill="#D51F32"/>
</svg>
